grf
version=1
nRows=57
nColumns=19
inDegrees=yes
endheader
time	ground_force_1_vx	ground_force_1_vy	ground_force_1_vz	ground_force_1_px	ground_force_1_py	ground_force_1_pz	ground_moment_1_mx	ground_moment_1_my	ground_moment_1_mz	ground_force_2_vx	ground_force_2_vy	ground_force_2_vz	ground_force_2_px	ground_force_2_py	ground_force_2_pz	ground_moment_2_mx	ground_moment_2_my	ground_moment_2_mz
0.000000	20.969259	1505.472900	-477.012787	0.140253	0.000000	-0.824926	0.000000	15.478914	0.000000	-26.908258	1579.321777	482.271423	0.175640	0.000000	-1.590936	0.000000	-15.275423	-0.000000
0.001000	20.522383	1503.236938	-477.739532	0.140201	0.000000	-0.824381	0.000000	15.735815	0.000000	-25.621006	1575.645508	482.673157	0.175125	0.000000	-1.590341	0.000000	-15.436578	-0.000000
0.002000	21.288937	1505.326904	-477.134705	0.139632	0.000000	-0.825749	0.000000	15.974289	0.000000	-25.662004	1574.369507	481.868988	0.174861	0.000000	-1.590423	0.000000	-15.647116	-0.000000
0.003000	22.021328	1506.915405	-477.697693	0.140305	0.000000	-0.824805	0.000000	15.364042	0.000000	-27.113388	1570.387695	481.949188	0.175032	0.000000	-1.591228	0.000000	-15.993705	-0.000000
0.004000	20.801435	1497.323242	-476.207397	0.139886	0.000000	-0.825939	0.000000	15.910899	0.000000	-26.345320	1574.853394	480.218292	0.175078	0.000000	-1.590836	0.000000	-15.293122	-0.000000
0.005000	22.143583	1500.041016	-477.977936	0.140049	0.000000	-0.825250	0.000000	15.388061	0.000000	-25.420292	1574.857666	480.498962	0.175325	0.000000	-1.591231	0.000000	-15.109844	-0.000000
0.006000	22.095352	1506.444458	-477.899017	0.139868	0.000000	-0.825058	0.000000	15.869622	0.000000	-25.863962	1570.223511	481.907959	0.174544	0.000000	-1.590770	0.000000	-15.801520	-0.000000
0.007000	21.855022	1507.894775	-477.977478	0.139803	0.000000	-0.825086	0.000000	15.745063	0.000000	-24.090664	1571.502686	483.073486	0.175033	0.000000	-1.590879	0.000000	-15.087159	-0.000000
0.008000	21.451437	1513.210205	-480.321777	0.139605	0.000000	-0.823310	0.000000	16.279062	0.000000	-24.856800	1577.088135	481.666931	0.175353	0.000000	-1.590408	-0.000000	-15.207498	-0.000000
0.009000	20.970781	1511.421509	-478.500549	0.139737	0.000000	-0.825281	0.000000	15.646690	0.000000	-24.093699	1575.963623	481.063873	0.175031	0.000000	-1.590619	0.000000	-15.482072	-0.000000
0.010000	21.896410	1507.242920	-478.058044	0.140161	0.000000	-0.825388	0.000000	15.540972	0.000000	-24.575882	1569.610718	484.765900	0.175303	0.000000	-1.592089	0.000000	-15.654949	-0.000000
0.011000	24.168755	1504.682007	-477.533783	0.140132	0.000000	-0.824785	0.000000	14.927843	0.000000	-25.179407	1568.955566	481.305481	0.175203	0.000000	-1.589991	-0.000000	-15.406883	-0.000000
0.012000	22.012199	1500.370605	-479.504211	0.139801	0.000000	-0.823826	0.000000	15.825279	0.000000	-26.423866	1571.183472	480.862762	0.174811	0.000000	-1.590393	-0.000000	-15.302956	-0.000000
0.013000	23.107555	1506.955811	-477.769592	0.139346	0.000000	-0.824593	0.000000	15.593913	0.000000	-24.133179	1574.051514	480.340454	0.174538	0.000000	-1.590484	0.000000	-15.650574	-0.000000
0.014000	22.786737	1513.670898	-478.176208	0.139832	0.000000	-0.825241	0.000000	15.473311	0.000000	-23.732025	1569.588135	481.586365	0.174477	0.000000	-1.590809	0.000000	-15.773103	-0.000000
0.015000	21.611654	1504.053223	-478.419495	0.139821	0.000000	-0.825027	0.000000	15.774136	0.000000	-23.731472	1578.041992	480.137634	0.174941	0.000000	-1.591019	0.000000	-15.357015	-0.000000
0.016000	22.461737	1514.460449	-478.983948	0.140601	0.000000	-0.825294	0.000000	15.337795	0.000000	-23.530481	1569.746216	480.660034	0.174693	0.000000	-1.590687	0.000000	-15.457716	-0.000000
0.017000	20.103962	1500.401367	-479.505859	0.138742	0.000000	-0.823826	0.000000	16.917559	0.000000	-22.563631	1565.618896	482.110382	0.175266	0.000000	-1.591682	-0.000000	-15.284852	-0.000000
0.018000	23.107555	1511.597534	-477.767761	0.139569	0.000000	-0.824738	0.000000	15.413051	0.000000	-23.329493	1566.070679	480.782440	0.173919	0.000000	-1.590749	-0.000000	-16.003558	-0.000000
0.019000	22.905571	1506.792603	-478.703003	0.139447	0.000000	-0.824167	0.000000	15.889088	0.000000	-23.087780	1575.633179	480.259277	0.174085	0.000000	-1.590741	0.000000	-15.826688	-0.000000
0.020000	24.247723	1507.266357	-480.552979	0.139650	0.000000	-0.824830	0.000000	15.333459	0.000000	-22.644247	1575.958740	479.977844	0.174323	0.000000	-1.590532	0.000000	-15.569340	-0.000000
0.021000	24.037367	1500.710449	-479.227295	0.139801	0.000000	-0.822641	0.000000	15.645543	0.000000	-23.207048	1554.107422	480.017151	0.173069	0.000000	-1.590969	0.000000	-16.075745	-0.000000
0.022000	23.793997	1515.275024	-480.511597	0.140054	0.000000	-0.824569	0.000000	15.510887	0.000000	-21.800526	1572.134155	479.776306	0.174505	0.000000	-1.590263	-0.000000	-15.520462	-0.000000
0.023000	23.473562	1509.204102	-479.267456	0.139650	0.000000	-0.824144	0.000000	15.709148	0.000000	-22.284229	1567.669189	479.413940	0.174100	0.000000	-1.589864	-0.000000	-15.783597	-0.000000
0.024000	23.267014	1514.802734	-480.832458	0.139575	0.000000	-0.825120	0.000000	15.822604	0.000000	-22.123409	1570.692749	480.499634	0.174069	0.000000	-1.590651	0.000000	-15.844056	-0.000000
0.025000	23.630737	1521.368286	-481.438965	0.139858	0.000000	-0.825191	0.000000	15.789783	0.000000	-21.680565	1576.282227	479.413940	0.174551	0.000000	-1.590413	0.000000	-15.528765	-0.000000
0.026000	23.427992	1514.482788	-481.477234	0.139668	0.000000	-0.824740	0.000000	15.834433	0.000000	-21.400063	1579.786133	479.534729	0.174495	0.000000	-1.590576	-0.000000	-15.693661	-0.000000
0.027000	23.590111	1527.777222	-480.030579	0.139706	0.000000	-0.826215	0.000000	15.876483	0.000000	-21.882385	1573.252686	479.211975	0.174362	0.000000	-1.590413	0.000000	-15.618880	-0.000000
0.028000	23.752993	1523.312012	-482.123627	0.139458	0.000000	-0.824490	0.000000	15.950378	0.000000	-19.022964	1575.005859	478.850830	0.174636	0.000000	-1.590122	0.000000	-15.061255	-0.000000
0.029000	21.336407	1530.672852	-480.073059	0.138997	0.000000	-0.827188	0.000000	16.092893	0.000000	-20.716198	1576.751343	479.292908	0.173776	0.000000	-1.590255	0.000000	-15.953194	-0.000000
0.030000	25.567808	1527.164429	-480.794403	0.138939	0.000000	-0.825905	0.000000	16.187338	0.000000	-18.384510	1573.566650	479.374390	0.174692	0.000000	-1.591934	0.000000	-15.736237	-0.000000
0.031000	23.753754	1516.753784	-478.983948	0.139059	0.000000	-0.824969	0.000000	16.026078	0.000000	-20.514931	1572.769165	478.489197	0.173898	0.000000	-1.589991	0.000000	-15.894102	-0.000000
0.032000	24.359325	1519.000122	-482.199707	0.138966	0.000000	-0.825211	0.000000	15.976097	0.000000	-17.694162	1579.143799	477.967224	0.174283	0.000000	-1.590128	0.000000	-15.105889	-0.000000
0.033000	24.196445	1519.147339	-482.200684	0.139484	0.000000	-0.824399	0.000000	15.809198	0.000000	-20.071260	1577.395386	478.528809	0.174364	0.000000	-1.590249	0.000000	-15.472292	-0.000000
0.034000	25.246613	1525.226440	-481.997955	0.139733	0.000000	-0.825614	0.000000	15.601635	0.000000	-20.232908	1569.268677	478.729919	0.174213	0.000000	-1.590870	0.000000	-15.658957	-0.000000
0.035000	22.544889	1519.300537	-482.563110	0.139552	0.000000	-0.824527	0.000000	15.689111	0.000000	-19.951302	1578.822754	478.528931	0.174136	0.000000	-1.590449	0.000000	-15.674885	-0.000000
0.036000	24.761013	1527.310181	-482.521973	0.139812	0.000000	-0.825193	0.000000	15.661958	0.000000	-19.629246	1560.968506	478.929993	0.174585	0.000000	-1.589811	0.000000	-15.322258	-0.000000
0.037000	24.280739	1526.848267	-483.286560	0.139287	0.000000	-0.825123	0.000000	15.761764	0.000000	-19.107582	1569.572754	478.730774	0.173839	0.000000	-1.590411	0.000000	-15.987447	-0.000000
0.038000	24.646364	1520.925903	-483.609497	0.138975	0.000000	-0.824533	0.000000	15.839174	0.000000	-19.549458	1571.485840	478.287415	0.173687	0.000000	-1.590298	-0.000000	-15.897315	-0.000000
0.039000	24.603077	1523.485596	-483.810333	0.138924	0.000000	-0.824029	0.000000	15.965024	0.000000	-18.623741	1570.848877	476.677734	0.173753	0.000000	-1.589929	0.000000	-15.620400	-0.000000
0.040000	24.442099	1523.482544	-484.215027	0.139071	0.000000	-0.824965	0.000000	16.002330	0.000000	-19.268126	1572.124634	477.805511	0.173901	0.000000	-1.590366	0.000000	-15.861873	-0.000000
0.041000	25.571993	1530.677246	-486.540833	0.139730	0.000000	-0.825255	0.000000	15.385063	0.000000	-18.784838	1571.172852	477.765259	0.173680	0.000000	-1.590368	0.000000	-15.878919	-0.000000
0.042000	24.644081	1532.765991	-483.569824	0.139595	0.000000	-0.825270	0.000000	15.676666	0.000000	-18.784838	1569.419434	478.086639	0.173882	0.000000	-1.590620	-0.000000	-15.766616	-0.000000
0.043000	23.954216	1520.750000	-484.575317	0.139288	0.000000	-0.824744	0.000000	15.982258	0.000000	-20.153534	1568.620361	478.969727	0.174206	0.000000	-1.589917	0.000000	-15.637471	-0.000000
0.044000	23.956497	1528.119141	-484.857208	0.139554	0.000000	-0.824750	0.000000	15.768589	0.000000	-18.382166	1570.385986	478.007050	0.174227	0.000000	-1.590456	0.000000	-15.613008	-0.000000
0.045000	24.442478	1531.808228	-485.705566	0.139575	0.000000	-0.824191	0.000000	15.818443	0.000000	-18.141693	1573.405273	475.067505	0.174078	0.000000	-1.589864	0.000000	-15.330604	-0.000000
0.046000	23.955738	1530.211426	-485.422546	0.139597	0.000000	-0.823997	0.000000	15.854134	0.000000	-18.706566	1574.040894	477.161133	0.173998	0.000000	-1.590137	0.000000	-15.876747	-0.000000
0.047000	24.118618	1534.378052	-485.742706	0.139490	0.000000	-0.824601	0.000000	15.788724	0.000000	-18.021458	1576.915405	477.564209	0.174309	0.000000	-1.590401	-0.000000	-15.661497	-0.000000
0.048000	23.107937	1530.539062	-486.145752	0.139232	0.000000	-0.824416	0.000000	16.033392	0.000000	-17.901361	1578.659058	477.443542	0.173796	0.000000	-1.589904	0.000000	-15.953399	-0.000000
0.049000	24.158863	1534.541870	-485.862732	0.139236	0.000000	-0.824970	0.000000	15.899144	0.000000	-18.423855	1567.824097	477.163147	0.173794	0.000000	-1.590517	0.000000	-16.024266	-0.000000
0.050000	23.997505	1542.054810	-485.903137	0.140061	0.000000	-0.825081	0.000000	15.507531	0.000000	-18.021734	1570.057251	477.564331	0.173941	0.000000	-1.590160	0.000000	-15.874886	-0.000000
0.051000	23.352068	1527.813965	-486.265320	0.139145	0.000000	-0.824690	0.000000	15.948085	0.000000	-17.778917	1576.431396	476.920166	0.173836	0.000000	-1.590059	0.000000	-15.660768	-0.000000
0.052000	24.119379	1528.921387	-487.029846	0.140379	0.000000	-0.822039	0.000000	15.262617	0.000000	-18.100420	1574.684448	477.885620	0.174197	0.000000	-1.590774	-0.000000	-15.529710	-0.000000
0.053000	24.117857	1538.695557	-486.910767	0.140096	0.000000	-0.824634	0.000000	15.593313	0.000000	-18.666672	1572.446533	478.729065	0.173876	0.000000	-1.590323	0.000000	-15.983632	-0.000000
0.054000	24.037748	1547.865356	-485.618225	0.139589	0.000000	-0.823478	0.000000	15.564416	0.000000	-15.481333	1572.446777	475.997986	0.174144	0.000000	-1.589879	0.000000	-15.112716	-0.000000
0.055000	23.761360	1530.830078	-488.282715	0.139742	0.000000	-0.824966	0.000000	15.672312	0.000000	-16.933819	1561.760986	479.492645	0.173738	0.000000	-1.589820	0.000000	-15.597608	-0.000000
0.056000	23.152744	1537.583008	-487.596375	0.139560	0.000000	-0.823858	0.000000	15.778338	0.000000	-17.337318	1569.731445	478.248108	0.173664	0.000000	-1.590439	0.000000	-15.956138	-0.000000
